# xmcd
#
# Track frame offsets:
#	150
#	15792
#	37666
#	50530
#
# Disc length: 858 seconds
#
# Revision: 2
# Processed by: cddbd v1.5.2PL0 Copyright (c) Steve Scherf et al.
# Submitted via: EasyCDDAExtractor 16.0.9.1
#
DISCID=1c035804
DTITLE=John Travolta and Olivia Newton-John - Your the one that I want [Martian 
DTITLE=Remix]
DYEAR=1900
DGENRE=Blues
TTITLE0=John Travolta and Olivia Newton-John - You're the one that I want [Marti
TTITLE0=an Remix]
TTITLE1=Grease Megamix [LP Version]
TTITLE2=John Travolta and Olivia Newton-John - You're the one that I want [Origi
TTITLE2=nal Version]
TTITLE3=Olivia Newton John - Hopelessly devoted to you
EXTD=
EXTT0=
EXTT1=a. You're the one that I want\nb. Greased Lightnin'\nc. Summer Nights\\
EXTT2=
EXTT3=
PLAYORDER=
